<svg width="100" height="100" viewBox="0 0 100 100" fill="none" xmlns="http://www.w3.org/2000/svg">
<g clip-path="url(#clip0_152_180)">
<path d="M68.6031 24.1283C63.7761 24.1283 59.3698 26.8713 57.2419 31.2086L55.0482 35.6809V30.5935C55.0482 27.1632 56.1027 23.8521 58.0767 21.0464C59.2285 19.405 59.9096 17.412 59.9096 15.2591C59.9096 9.66639 55.3871 5.13135 49.7881 5.13135C44.1892 5.13135 39.6165 9.66639 39.6165 15.2591C39.6165 17.3461 40.2849 19.2888 41.3708 20.902C43.2131 23.6387 44.2048 26.865 44.2048 30.1635V34.4412L42.7172 31.331C40.6145 26.9309 36.1705 24.1283 31.2902 24.1283H3.45853C2.22199 24.1283 1.0796 24.7874 0.461325 25.8576C-0.153809 26.9278 -0.153809 28.2459 0.464463 29.3161C2.20002 32.3259 4.66683 34.8461 7.63579 36.6475L27.9164 48.9502C27.364 47.9961 26.9183 47.0106 26.6108 46.0471C25.8732 43.6808 25.7603 41.7098 25.8293 40.4827C25.9454 34.7613 29.6582 32.2066 33.349 32.5644C35.6087 32.7872 37.5012 34.0991 38.5431 35.932L40.6961 39.7609C40.7212 39.7452 44.503 42.7738 50.0078 44.2739C56.0211 42.3626 59.3447 39.7452 59.3604 39.7609L61.4945 35.9665C63.3085 32.7308 67.4136 31.579 70.6587 33.3992C72.6328 34.5102 74.2679 37.0681 74.2397 40.4858C74.1863 42.463 74.1895 43.6776 73.4614 46.044C73.1538 46.9793 72.727 47.9365 72.1903 48.8749L92.3673 36.6475C95.3363 34.8492 97.7999 32.329 99.5418 29.3161C100.157 28.2459 100.157 26.9278 99.5418 25.8576C98.9235 24.7874 97.778 24.1283 96.5446 24.1283H68.6031V24.1283Z" fill="#BC0E48"/>
<path d="M50.0361 67.0998C50.5037 66.9648 53.4915 66.1457 54.4644 65.8883C53.5668 65.4521 50.5445 64.0869 50.0361 63.864C49.5151 64.0837 46.5022 65.4521 45.6014 65.8883C46.5775 66.1457 49.5621 66.9648 50.0361 67.0998Z" fill="#BC0E48"/>
<path d="M53.0678 83.0148C52.0761 82.9489 47.9836 82.9489 46.9981 83.0148C46.4865 83.0462 46.0063 83.0211 45.4289 83.0932C45.0272 83.1466 44.7259 83.2031 44.1986 83.2596V89.4674C44.1986 92.4521 46.634 94.8718 49.625 94.8718C52.6096 94.8718 55.045 92.4521 55.045 89.4674V83.1654C55.045 83.1372 54.7312 83.1121 54.5649 83.0964C53.9811 83.0242 53.5763 83.0493 53.0678 83.0148Z" fill="#BC0E48"/>
<path d="M33.3898 79.9674C32.9944 80.7834 32.7213 81.6276 32.624 82.4561C32.2631 84.8539 32.9316 86.7087 33.5844 87.9829C34.9967 90.5219 36.3337 91.3567 36.3337 91.3567C36.3337 91.3567 36.2364 90.977 36.1611 90.2771C35.298 82.2051 40.8813 81.4079 41.1794 81.32C36.6475 80.5668 34.4129 79.7822 33.644 79.4683C33.5562 79.6347 33.4683 79.7979 33.3898 79.9674Z" fill="#BC0E48"/>
<path d="M70.2287 59.9912C68.2201 56.7429 63.9205 54.1192 62.9884 53.5919C64.4164 52.6598 65.7471 51.621 66.8989 50.4378C71.1766 46.0628 71.2456 41.3866 71.2111 40.3791C71.1452 39.378 71.1138 38.8413 71.1138 38.8413C70.9255 36.409 68.7976 34.5919 66.3622 34.777C63.933 34.9685 62.1127 37.0963 62.3042 39.5286C62.2571 39.5129 62.2948 40.4011 61.7361 41.352C61.4254 41.8228 60.986 42.4442 60.0571 43.1755C59.1344 43.8973 57.8131 44.7447 56.1215 45.567C54.3859 46.4175 52.3302 47.246 50.0298 48.1342C48.1938 47.4281 46.5241 46.7596 45.0459 46.0911C44.6568 45.9185 44.2896 45.7427 43.9318 45.567C42.2339 44.7447 40.9126 43.8942 39.9962 43.1755C39.0672 42.4442 38.6215 41.8228 38.3108 41.352C37.7522 40.4011 37.7899 39.5161 37.7491 39.5286C37.9436 37.0963 36.1202 34.9716 33.6848 34.777C31.2588 34.5919 29.1309 36.409 28.9363 38.8413C28.9363 38.8413 28.9018 39.378 28.8422 40.3791C28.8045 41.3866 28.9175 42.9621 29.5358 44.864C30.1729 46.7533 32.1062 50.2778 37.0649 53.5919C42.871 56.5201 49.9074 59.8939 50.0266 59.85C51.0184 60.2643 62.3293 64.7711 61.3595 66.9178C61.2308 67.3414 60.4713 67.6113 59.4168 67.9597C58.3278 68.3646 57.0473 68.691 55.6884 69.0142C54.9289 69.1994 54.1443 69.3751 53.3534 69.5666C59.8342 71.6882 64.7302 74.3025 66.7325 75.652C66.8173 75.7054 66.8894 75.7556 66.9616 75.8121C67.4136 75.5233 67.8655 75.1938 68.3237 74.8141C70.7215 72.7427 74.4688 66.8518 70.2287 59.9912Z" fill="#BC0E48"/>
<path d="M64.5074 76.9482C59.4922 73.3986 41.6659 68.3363 40.6553 67.9691C39.607 67.6176 38.8789 67.1312 38.7408 66.9209C38.5462 66.356 38.9699 65.995 39.0672 65.904C40.106 64.7993 44.4936 62.2791 46.5461 61.3533C41.487 59.1156 36.0606 56.7837 33.983 55.5817C32.5612 56.6582 30.8916 57.9355 29.8339 60.0038C28.0011 63.6004 28.0011 67.4481 28.0011 67.4481C28.0011 69.9714 29.6927 73.2637 31.739 74.8235C32.2756 75.2723 32.8029 75.6457 33.3239 75.969C34.7895 76.876 36.1736 77.353 37.4039 77.7297C40.8028 78.7214 43.665 79.0792 46.3829 79.3742C48.9596 79.688 51.4452 79.9893 53.8147 80.2781C54.6025 80.3691 61.1304 81.0784 62.9633 83.8747C63.6349 84.901 63.9739 86.2223 64.0492 87.3992C64.1402 88.5949 64.0115 89.6024 63.908 90.2865C63.8264 90.9864 63.7259 91.3662 63.7259 91.3662C63.7259 91.3662 65.2543 90.6255 66.4815 87.9923C69.8961 80.6139 64.5482 76.9764 64.5074 76.9482Z" fill="#BC0E48"/>
</g>
<defs>
<clipPath id="clip0_152_180">
<rect width="100" height="100" fill="white"/>
</clipPath>
</defs>
</svg>
